<svg width="400" height="500" viewBox="0 0 400 500" xmlns="http://www.w3.org/2000/svg">
  <defs>
    <!-- Fond portrait élégant -->
    <linearGradient id="portraitBg" x1="0%" y1="0%" x2="100%" y2="100%">
      <stop offset="0%" style="stop-color:#F5F0E8;stop-opacity:1" />
      <stop offset="50%" style="stop-color:#E8E0D4;stop-opacity:1" />
      <stop offset="100%" style="stop-color:#D4C8B8;stop-opacity:1" />
    </linearGradient>

    <!-- Accent mauve médical -->
    <radialGradient id="accentGlow" cx="50%" cy="30%" r="60%">
      <stop offset="0%" style="stop-color:#993366;stop-opacity:0.1" />
      <stop offset="100%" style="stop-color:#993366;stop-opacity:0" />
    </radialGradient>

    <!-- Ombre douce -->
    <filter id="softShadow">
      <feGaussianBlur stdDeviation="15"/>
      <feOffset dx="0" dy="10"/>
      <feColorMatrix type="matrix" values="0 0 0 0 0  0 0 0 0 0  0 0 0 0 0  0 0 0 0.1 0"/>
    </filter>

    <!-- Pattern texture lin -->
    <pattern id="linenTexture" x="0" y="0" width="4" height="4" patternUnits="userSpaceOnUse">
      <rect width="4" height="4" fill="#F5F0E8"/>
      <rect x="0" y="0" width="1" height="1" fill="#E8E0D4" opacity="0.3"/>
      <rect x="2" y="2" width="1" height="1" fill="#E8E0D4" opacity="0.2"/>
    </pattern>
  </defs>

  <!-- Fond -->
  <rect width="100%" height="100%" fill="url(#portraitBg)"/>
  <rect width="100%" height="100%" fill="url(#linenTexture)" opacity="0.5"/>

  <!-- Glow mauve subtil -->
  <rect width="100%" height="100%" fill="url(#accentGlow)"/>

  <!-- Silhouette portrait stylisée -->
  <g transform="translate(200, 280)" filter="url(#softShadow)">
    <!-- Corps/épaules -->
    <ellipse cx="0" cy="100" rx="120" ry="80" fill="#5C6B4A" opacity="0.15"/>
    <!-- Tête -->
    <circle cx="0" cy="-20" r="75" fill="#5C6B4A" opacity="0.12"/>
    <!-- Cheveux stylisés -->
    <path d="M-60 -70 Q-70 -100 -40 -90 Q0 -110 40 -90 Q70 -100 60 -70 Q50 -50 0 -60 Q-50 -50 -60 -70" fill="#3D4832" opacity="0.1"/>
  </g>

  <!-- Cadre médical élégant -->
  <rect x="30" y="30" width="340" height="440" fill="none" stroke="#8B7355" stroke-width="1" opacity="0.3" rx="8"/>
  <rect x="40" y="40" width="320" height="420" fill="none" stroke="#993366" stroke-width="0.5" opacity="0.2" rx="6"/>

  <!-- Badge EMPC -->
  <g transform="translate(200, 450)">
    <rect x="-60" y="-18" width="120" height="36" rx="18" fill="#5C6B4A" opacity="0.9"/>
    <text x="0" y="5" text-anchor="middle" fill="#F5F0E8" font-family="Georgia, serif" font-size="11" letter-spacing="2">
      PORTRAIT
    </text>
  </g>

  <!-- Info dimensions -->
  <text x="200" y="480" text-anchor="middle" fill="#8B7355" font-family="Georgia, serif" font-size="10" letter-spacing="2" opacity="0.6">
    400 × 500 px
  </text>
</svg>
